<?xml version="1.0" encoding="utf-8"?>
<!-- Generator: Adobe Illustrator 27.8.0, SVG Export Plug-In . SVG Version: 6.00 Build 0)  -->
<svg version="1.1" id="Laag_1" xmlns="http://www.w3.org/2000/svg" xmlns:xlink="http://www.w3.org/1999/xlink" x="0px" y="0px"
	 viewBox="0 0 74 74" style="enable-background:new 0 0 74 74;" xml:space="preserve">
<style type="text/css">
	.st0{clip-path:url(#SVGID_00000156567971403722045880000017806839444165883060_);}
	.st1{fill:#FFFFFF;}
	.st2{fill:#5D8EED;}
</style>
<g>
	<defs>
		<rect id="SVGID_1_" x="1.5" y="0.8" width="71" height="72.5"/>
	</defs>
	<clipPath id="SVGID_00000172412239859474262350000015329749235271330217_">
		<use xlink:href="#SVGID_1_"  style="overflow:visible;"/>
	</clipPath>
	<g style="clip-path:url(#SVGID_00000172412239859474262350000015329749235271330217_);">
		<path class="st1" d="M20.2,39.5c0.7-0.6,1.5-1,2.4-1.1c0.2,0,0.3,0,0.5,0c0,0,0,0,0,0V15.6c0-1.3-1-2.4-2.2-2.4
			c-1.3,0-2.3,1-2.3,2.3v24.7c0,0.3,0.4,0.5,0.6,0.3L20.2,39.5z"/>
		<path class="st1" d="M14,45V30.6c0-1.3-1-2.4-2.2-2.4c-1.3,0-2.3,1-2.3,2.3v18.1c0,0.3,0.4,0.5,0.6,0.3l3.9-3.6
			C14,45.2,14,45.1,14,45z"/>
		<path class="st1" d="M50.3,31.1v-9.6c0-1.3-1-2.4-2.2-2.4c-1.3,0-2.3,1-2.3,2.3v13.2c0,0.3,0.3,0.5,0.6,0.3l3.9-3.5
			C50.3,31.3,50.3,31.2,50.3,31.1z"/>
		<path class="st1" d="M41.3,39.3V15.6c0-1.3-1-2.4-2.2-2.4c-1.3,0-2.3,1-2.3,2.3v27.3c0,0.3,0.3,0.5,0.6,0.3l3.9-3.5
			C41.2,39.5,41.3,39.4,41.3,39.3z"/>
		<path class="st1" d="M32.2,46.4v-19c0-1.3-1-2.4-2.2-2.4c-1.3,0-2.3,1-2.3,2.3v14.5c0,0.1,0,0.2,0.1,0.2l3.9,4.6
			C31.8,46.8,32.2,46.7,32.2,46.4z"/>
		<path class="st1" d="M72.5,15.4V13c0-6.8-5.4-12.2-12-12.2h-47c-6.6,0-12,5.5-12,12.2v42.7c0,0.4,0.5,0.7,0.9,0.4l3.5-3.3
			C6,52.7,6,52.5,6,52.4V13c0-4.2,3.3-7.6,7.5-7.6h47c4.1,0,7.5,3.4,7.5,7.6v3.2c0,0.3,0.3,0.6,0.6,0.5l3.5-0.7
			C72.3,15.9,72.5,15.7,72.5,15.4z"/>
		<path class="st2" d="M68,31.8v29.7c0,3.9-3.1,7.1-7,7.1H13c-3.3,0-6-2.3-6.8-5.4c0,0,0-0.1,0-0.1l0-2c0-0.1,0-0.2,0.1-0.3
			l16.1-14.9c0.1-0.1,0.4-0.1,0.5,0l7.4,8.7c0.2,0.2,0.3,0.4,0.5,0.5c0.9,0.5,2,0.4,2.7-0.2l28.7-26.1c0.1-0.1,0.4-0.1,0.5,0
			l2.3,2.6c0.5,0.5,1.3,0.3,1.6-0.3l1.8-5.8l2.1-6.5c0.1-0.4-0.2-0.7-0.6-0.6l-6.6,1.5l-5.5,1.2c-0.9,0.2-1.2,1.3-0.6,1.9l2,2.2
			c0.1,0.1,0.1,0.4,0,0.5L32.5,49.6c-0.1,0.1-0.4,0.1-0.5,0l-7.4-8.8c-0.2-0.3-0.5-0.5-0.8-0.6c-0.9-0.4-1.8-0.2-2.5,0.4L2.4,58.2
			c0,0-0.1,0.1-0.1,0.1L2,58.5c-0.4,0.4-0.6,1-0.6,1.3L1.5,63v0c0.7,5.7,5.6,10.2,11.4,10.2H61c6.4,0,11.5-5.2,11.5-11.7V20.1
			c0-0.5-0.7-0.6-0.8-0.1l-3.7,11.8C68,31.8,68,31.8,68,31.8z"/>
	</g>
</g>
</svg>
