<?xml version="1.0" encoding="utf-8"?>
<!-- Generator: Adobe Illustrator 27.8.0, SVG Export Plug-In . SVG Version: 6.00 Build 0)  -->
<svg version="1.1" id="Laag_1" xmlns="http://www.w3.org/2000/svg" xmlns:xlink="http://www.w3.org/1999/xlink" x="0px" y="0px"
	 viewBox="0 0 200.6 108.6" style="enable-background:new 0 0 200.6 108.6;" xml:space="preserve">
<style type="text/css">
	.st0{fill-rule:evenodd;clip-rule:evenodd;fill:#FFFFFF;}
</style>
<g id="Page-1">
	<g id="Group-33-Copy">
		<path id="Combined-Shape" class="st0" d="M186.6,81.5c-1.4,0.2-2.7-0.7-2.9-2.1c-0.2-1.4,0.7-2.7,2.1-2.9c1.4-0.2,2.7,0.7,2.9,2.1
			C189,80,188,81.3,186.6,81.5z M47.1,87.8c0.8-1.4,1.2-3,1.2-4.7c0-2.1-0.6-3.8-1.9-5.1c-1.2-1.3-2.9-1.9-4.9-1.9
			c-2.4,0-4.4,0.9-6.1,2.6c-1.6,1.7-2.5,3.9-2.5,6.6c0,2.1,0.6,3.8,1.9,5c1.2,1.3,2.9,1.9,4.8,1.9c1.5,0,3-0.3,4.3-1.1
			C45.2,90.5,46.3,89.4,47.1,87.8z M49.9,74.5l0.3,0.4h5.2l-2.7,22.5H46l0.4-2.9c-1.5,1.3-2.8,2.3-4.1,2.8c-1.3,0.5-2.8,0.8-4.2,0.8
			c-3.6,0-6.5-1.3-8.6-3.9c-2.1-2.6-3.2-5.6-3.2-9.1c0-2.6,0.7-5.2,2-7.5c1.3-2.3,3.2-4.2,5.5-5.6c2.2-1.3,4.6-2,7.2-2
			c1.7,0,3.9,0.4,5.4,1.1C47.8,72,49,73.2,49.9,74.5z M68.2,76.5c-0.4,0.3-0.6,0.7-0.6,1.1c0,0.4,0.2,0.8,0.5,1.2
			c0.3,0.4,1.3,1.2,3,2.3c2.6,1.8,4.4,3.3,5.2,4.6c0.8,1.2,1.3,2.7,1.2,4.2c0,2-0.9,3.8-2.6,5.6c-1.7,1.8-4.2,2.6-7.4,2.6
			c-1.8,0-3.5-0.4-5.1-1.1c-1.5-0.7-3.2-2-5.1-3.9l4.2-4.7c1.9,2.4,4,3.6,6.3,3.6c0.9,0,1.6-0.2,2.2-0.6c0.5-0.3,0.8-0.9,0.8-1.5
			c0-0.4-0.2-0.9-0.6-1.4c-0.4-0.5-1.5-1.3-3.4-2.6c-2.1-1.4-3.6-2.7-4.4-3.7c-1.1-1.4-1.7-3-1.7-4.6c0-2.2,0.9-4.1,2.7-5.5
			c1.8-1.4,3.9-2.1,6.3-2.1c1.7,0,3.3,0.4,4.8,1.2c1.5,0.8,2.8,1.9,3.8,3.3l-3.3,5c-0.9-1.2-1.7-2.1-2.7-2.6
			c-0.9-0.6-1.8-0.9-2.6-0.9C69.2,76,68.7,76.2,68.2,76.5z M90.7,87.2l8.9-16.1h6.8l-20.3,37h-6.7l7.3-13.6l-7.3-23.4h6.2L90.7,87.2
			z M22.4,75c1.5,0.3,2.6,1.6,2.6,3.1c0,1.8-1.4,3.2-3.1,3.2l-12.7,0l-1.3,9.5l12.3,0c1.7,0,3.1,1.4,3.1,3.1c0,1.7-1.3,3.2-3.1,3.2
			H0.4l4.8-36h19.1c1.7,0,3.1,1.4,3.1,3.2c0,1.8-1.4,3.2-3.1,3.2l-13.2,0L10,75H22.4z M134.2,61.1c1.7,0,3.1,1.4,3.1,3.2
			c0,1.8-1.4,3.2-3.1,3.2l-13.2,0l-1,7.5h12.4c1.5,0.3,2.6,1.6,2.6,3.1c0,1.8-1.4,3.2-3.1,3.2l-12.7,0l-1.3,9.5l12.3,0
			c1.7,0,3.1,1.4,3.1,3.1c0,1.7-1.3,3.2-3.1,3.2h-19.9l4.8-36H134.2z M160.6,85.8c1.3-2,1.9-4.4,2-7.3c0-2.4-0.5-4.4-1.4-6
			c-0.9-1.6-2.2-2.9-3.8-3.7c-1.6-0.9-3.9-1.3-6.6-1.3h-1.7l-3.1,23.4h2.2c3.4,0,5.8-0.3,7.3-0.9C157.6,89.1,159.4,87.7,160.6,85.8z
			 M169.3,78.3c0,3.5-0.9,7-2.6,10c-1.7,3-3.9,5.2-6.5,6.7c-2.6,1.4-6.2,2.1-10.9,2.1h-11.1l4.9-36h5.6c5.3,0,9.2,0.6,11.8,1.9
			c2.6,1.3,4.7,3.3,6.3,6C168.5,71.7,169.3,74.8,169.3,78.3z M195.8,77.9l4.6,19.1H194l-1.8-7.7h-13.8l-4,7.7h-7l18.8-36h5.5
			l2.6,10.8l-4.8,2.7c-0.9-0.7-2.1-1.1-3.2-1.1c-2.9,0-5.3,2.2-5.6,5.2c-0.4,3.2,1.9,6.1,5,6.5c3.1,0.4,5.9-1.9,6.3-5.1L195.8,77.9z
			"/>
		<path id="Fill-17" class="st0" d="M86.9,35.9c2.8,0,5.1,2.3,5.1,5.1c0,2.8-2.3,5.1-5.1,5.1s-5.1-2.3-5.1-5.1
			C81.8,38.2,84.1,35.9,86.9,35.9 M129.8,18.3c-1.7-1.7-3.8-3.1-6.2-3.8C119,2.8,105.9-2.9,94.4,1.7c-1.8,0.7-3.5,1.6-5.1,2.8
			C87.5,5.8,86,7.3,84.6,9c-0.7-0.1-1.5-0.1-2.2-0.1c-10,0-18.2,8.2-18.2,18.2c0,7.8,5,14.7,12.1,17.2c1.4,4.5,5.6,7.8,10.5,7.8
			c6.1,0,11-4.9,11-11c0-0.5,0-0.9-0.1-1.4l15.5-7.8l-0.1-0.3l1.5-0.7l-3-5.9l-1.5,0.7l-0.1-0.3l-15.5,7.8c-2-2-4.7-3.2-7.7-3.2
			c-4.4,0-8.2,2.6-10,6.4c-4.1-2.4-6.2-7.3-5-12.1c1.5-5.8,7.4-9.3,13.2-7.8c1.1,0.3,2.1,0.7,3,1.3c2.6-8,11.3-12.3,19.2-9.7
			c5.6,1.9,9.7,6.9,10.3,12.8c0.3,0,0.6,0,0.8,0c4.7,0,8.5,3.8,8.5,8.5c0,4.4-3.4,8.1-7.8,8.5h-6.2v7.3h6.6l0.3,0
			c8.7-0.7,15.1-8.4,14.4-17.1C134,24.4,132.4,20.9,129.8,18.3"/>
	</g>
</g>
</svg>
