<?xml version="1.0" encoding="UTF-8"?>
<svg id="Laag_1" xmlns="http://www.w3.org/2000/svg" version="1.1" viewBox="0 0 512 512">
  <!-- Generator: Adobe Illustrator 29.2.0, SVG Export Plug-In . SVG Version: 2.1.0 Build 108)  -->
  <defs>
    <style>
      .st0 {
        fill: #fff;
      }
    </style>
  </defs>
  <path class="st0" d="M130,446.5c1.6,12.8,15,21.5,7,23.5s-43-63.5-51-91.5-12.5-59.5-10.5-77.5c2-18,105.5-46,105.5-53.5s-33.5-.5-35-6.5,25.3-2.4,32.5-12c11.2-15,25.5-12.5,34.5-20.5s20-38.5,22-51.5-20-28-26-38,13-17,59-36,192-61,194-56-48,26-83,39-92,38-92,45,3,12.5,1,28.5-2.2,23.5-6,34c-2.5,7-5,23.5,0,38.5s17,21,23,23c5,.3,18.8.8,34,0,19-1,46,1,46,6s-41,2-41,9,42-1,41,6-35,4-53,4-35.7-.7-45-4l-2,7c-3.3,0-10.3,2-17.5,2s-9.5,3-26,3-11.5-1-26.5-2-71,42-81,56-4,48-4,63.5-2,45,0,61Z"/>
</svg>