<?xml version="1.0" encoding="utf-8"?>
<!-- Generator: Adobe Illustrator 27.8.0, SVG Export Plug-In . SVG Version: 6.00 Build 0)  -->
<svg version="1.1" id="Router_Medium_x5F_Black_00000159464448132936669960000002337362428709113490_"
	 xmlns="http://www.w3.org/2000/svg" xmlns:xlink="http://www.w3.org/1999/xlink" x="0px" y="0px" viewBox="0 0 182 182"
	 style="enable-background:new 0 0 182 182;" xml:space="preserve">
<style type="text/css">
	.st0{fill:#FA2921;}
	.st1{fill:#ED79B5;}
	.st2{fill:#FFB400;}
	.st3{fill:#1E83F7;}
	.st4{fill:#18C249;}
</style>
<g>
	<path class="st0" d="M84.9,55.3c11.9,10.6,21.5,21.9,27.7,32.5c10.6-19,17.7-41.6,17.8-55.9c0-0.1,0-0.2,0-0.3
		c0-21.3-21.2-29.5-39.5-29.5s-39.5,8.3-39.5,29.5c0,0.3,0,0.7,0,1.2C61.6,37.3,73.7,45.4,84.9,55.3z"/>
	<path class="st1" d="M19.9,113.3C27.3,105,38.8,96,51.7,88.4c13.7-8.1,27.4-13.7,39.5-16.3c-14.8-16-34-29.7-47.7-34.2
		c-0.1,0-0.2-0.1-0.3-0.1C23,31.2,8.5,48.8,2.9,66.2s-4.3,40.1,15.9,46.7C19.1,113,19.4,113.1,19.9,113.3z"/>
	<path class="st2" d="M179.2,65.9c-5.6-17.4-20.1-35-40.3-28.4c-0.3,0.1-0.6,0.2-1.1,0.3c-1.2,11.1-5.1,25.1-11.1,38.8
		c-6.4,14.6-14.1,27.2-22.4,36.4c21.3,4.2,45,4,58.7-0.4c0.1,0,0.2-0.1,0.3-0.1C183.5,106,184.8,83.3,179.2,65.9z"/>
	<path class="st3" d="M72.9,130.2c-3.4-15.5-4.6-30.3-3.3-42.6c-19.7,9.1-38.8,23.2-47.3,34.8c-0.1,0.1-0.1,0.2-0.2,0.2
		C9.7,139.9,22,159,36.7,169.8s36.8,16.5,49.3-0.7c0.2-0.2,0.4-0.6,0.7-0.9C81.1,158.5,76.1,144.9,72.9,130.2z"/>
	<path class="st4" d="M159.6,121.6c-10.9,2.3-25.4,2.9-40.3,1.4c-15.8-1.5-30.3-5-41.5-10c2.6,21.6,10.1,44,18.5,55.7
		c0.1,0.1,0.1,0.2,0.2,0.2c12.5,17.2,34.5,11.4,49.3,0.7c14.8-10.7,27.1-29.9,14.6-47.1C160.1,122.2,159.8,121.9,159.6,121.6z"/>
</g>
</svg>
