<?xml version="1.0" encoding="utf-8"?>
<!-- Generator: Adobe Illustrator 27.8.0, SVG Export Plug-In . SVG Version: 6.00 Build 0)  -->
<svg version="1.1" id="Laag_1" xmlns="http://www.w3.org/2000/svg" xmlns:xlink="http://www.w3.org/1999/xlink" x="0px" y="0px"
	 viewBox="0 0 603.8 603.8" style="enable-background:new 0 0 603.8 603.8;" xml:space="preserve">
<style type="text/css">
	.st0{fill:none;stroke:#000000;stroke-width:45;stroke-linejoin:round;stroke-miterlimit:1.414;}
	.st1{fill-rule:evenodd;clip-rule:evenodd;fill:#79B93C;}
	.st2{fill-rule:evenodd;clip-rule:evenodd;fill:#4FAE32;}
	.st3{fill-rule:evenodd;clip-rule:evenodd;}
	.st4{fill:none;stroke:#000000;stroke-width:45;stroke-linecap:round;stroke-linejoin:round;stroke-miterlimit:1.414;}
	.st5{fill:#FFFFFF;}
</style>
<g>
	<path class="st0" d="M132,22.5H495v265.6h97.7L313.5,581.3L34.3,288.1H132L132,22.5L132,22.5z"/>
	<path class="st1" d="M132,22.5H495v265.7h97.7L313.5,581.3L34.3,288.2H132V22.5z"/>
	<path class="st2" d="M313.5,581.3L132.4,22.5h362.1L313.5,581.3L313.5,581.3z"/>
	<path class="st3" d="M63.9,349.4h499.2v170H63.9V349.4z"/>
	<path class="st4" d="M124.1,508.5H63.9V360.3h148v148.2h-60.2V391.2h-27.6L124.1,508.5L124.1,508.5z M387.5,508.5h-148v-31.1h29.3
		v-29.3h29.3v-29.3h29.3v-27.6h-87.8v-30.9h148v60.2h-29.3v29.3H329v27.6h58.5V508.5L387.5,508.5z M475.3,477.4h27.6v-86.2h-27.6
		V477.4L475.3,477.4z M415.1,508.5V301.8h60.2v58.5h87.8v148.2H415.1z"/>
	<path class="st5" d="M124.1,508.5H63.9V360.3h148v148.2h-60.2V391.2h-27.6L124.1,508.5L124.1,508.5z M387.5,508.5h-148v-31.1h29.3
		v-29.3h29.3v-29.3h29.3v-27.6h-87.8v-30.9h148v60.2h-29.3v29.3H329v27.6h58.5V508.5L387.5,508.5z M475.3,477.4h27.6v-86.2h-27.6
		V477.4L475.3,477.4z M415.1,508.5V301.8h60.2v58.5h87.8v148.2H415.1z"/>
</g>
</svg>
