<?xml version="1.0" encoding="utf-8"?>
<!-- Generator: Adobe Illustrator 27.8.0, SVG Export Plug-In . SVG Version: 6.00 Build 0)  -->
<svg version="1.1"
	 id="svg2" xmlns:svg="http://www.w3.org/2000/svg" xmlns:inkscape="http://www.inkscape.org/namespaces/inkscape" xmlns:sodipodi="http://sodipodi.sourceforge.net/DTD/sodipodi-0.dtd" sodipodi:docname="rrcommerce.eps"
	 xmlns="http://www.w3.org/2000/svg" xmlns:xlink="http://www.w3.org/1999/xlink" x="0px" y="0px" viewBox="0 0 116.2 116.2"
	 style="enable-background:new 0 0 116.2 116.2;" xml:space="preserve">
<style type="text/css">
	.st0{fill:#59268B;}
	.st1{fill:#81C728;}
	.st2{fill:#2C1411;}
	.st3{fill:#E50986;}
	.st4{fill:#FBC417;}
	.st5{fill:#839422;}
	.st6{fill:#2A1210;}
	.st7{fill:#EA1C24;}
	.st8{fill:#7C161A;}
	.st9{fill:#220C10;}
	.st10{fill:#449FDD;}
	.st11{fill:#233063;}
	.st12{fill:#090E0D;}
	.st13{fill:#212B5B;}
	.st14{fill:#090C0B;}
	.st15{fill:#040606;}
	.st16{fill:#FFFFFF;}
</style>
<sodipodi:namedview  bordercolor="#000000" borderopacity="0.25" id="namedview4" inkscape:deskcolor="#d1d1d1" inkscape:pagecheckerboard="0" inkscape:pageopacity="0.0" inkscape:showpageshadow="2" pagecolor="#ffffff">
	</sodipodi:namedview>
<g id="g8" transform="matrix(1.3333333,0,0,-1.3333333,0,85.866667)" inkscape:groupmode="layer" inkscape:label="ink_ext_XXXXXX">
	<g id="g10" transform="scale(0.1)">
		<path id="path12" class="st0" d="M556.5-113.8L556.5-113.8L556.5-113.8L556.5-113.8 M556.4-113.8L167-113.1
			C75.2-112.9,0.9-38.4,1,53.5l0.3,166.3l95.8-0.2c-14.2-75.6,25.9-153.4,99.7-184.1L556.4-113.8L556.4-113.8"/>
		<path id="path14" class="st1" d="M224.9,219.4l-127.9,0.2c2.1,11.2,5.4,22.4,9.9,33.3l63.8,153.6l79.7-33.1
			C216.1,328.5,207.8,270.5,224.9,219.4"/>
		<path id="path16" class="st2" d="M556.5-113.8L556.5-113.8L556.5-113.8 M556.4-113.8L196.8,35.6C122.9,66.3,82.9,144.1,97.1,219.7
			l127.9-0.2c8.6-25.7,23.6-49.7,45-69.4L556.4-113.8L556.4-113.8"/>
		<path id="path18" class="st3" d="M556.5-113.8L556.5-113.8L556.5-113.8L556.5-113.8 M572.4,323.7L443.9,442
			c9.4,7.1,19.8,13.4,30.9,18.5l151,69.6L682,408.4C633.8,398.6,593.5,366.7,572.4,323.7"/>
		<path id="path20" class="st4" d="M378.5,320.3l-128,53.2c3,4,6.3,7.8,9.7,11.6L373,507.4l71-65.4
			C405,412.5,381.6,367.7,378.5,320.3"/>
		<path id="path22" class="st5" d="M403.3,218.6c-4.1,0.3-8.3,0.5-12.5,0.5l-165.8,0.3c-17.1,51.1-8.8,109.1,25.6,154l128-53.2
			c-1.8-26.8,2.9-54.3,15-80.4L403.3,218.6"/>
		<path id="path24" class="st6" d="M556.5-113.8L556.5-113.8 M556.4-113.7L269.9,150c-21.4,19.7-36.4,43.7-45,69.4l165.8-0.3
			c4.2,0,8.4-0.2,12.5-0.5l153.1-332.2V-113.7"/>
		<path id="path26" class="st7" d="M556.5-113.8L556.5-113.8L556.5-113.8L556.5-113.8 M556.3,243.7c-8.1,5.1-16.7,9.7-25.8,13.5
			l-152,63.1c3.1,47.4,26.5,92.2,65.4,121.7l128.4-118.3c-10.3-20.9-16.1-44.5-16.1-69.4L556.3,243.7"/>
		<path id="path28" class="st8" d="M556.5-113.8L556.5-113.8L556.5-113.8L556.5-113.8 M556.3,64.7c-5.8,82-71.1,147.6-153,153.9
			l-9.8,21.3c-12,26.1-16.7,53.6-15,80.4l152-63.1c9.1-3.8,17.7-8.3,25.8-13.5L556.3,64.7"/>
		<path id="path30" class="st9" d="M556.5-113.8L556.5-113.8 M556.4-113.6L403.3,218.6c82-6.3,147.2-71.9,153-153.9L556.4-113.6"/>
		<path id="path32" class="st10" d="M556.4-113.8L556.4-113.8h0.1H556.4 M556.5-113.8l151,69.6C790.9-5.8,827.4,93,788.9,176.4
			L682,408.4c10.2,2.1,20.7,3.1,31.4,3.1l157.2,0.1l0.1-368.1c0-86.8-70.3-157.2-157.1-157.2L556.5-113.8"/>
		<path id="path34" class="st11" d="M556.5-113.8h-0.1v0.1L556.5-113.8L556.5-113.8"/>
		<path id="path36" class="st12" d="M556.5-113.8l-0.1,0.1v0.1L556.5-113.8L556.5-113.8"/>
		<path id="path38" class="st13" d="M556.5-113.8L669.1,8.5c62.2,67.6,57.9,172.8-9.7,235l-87.1,80.2c21.2,43,61.4,74.9,109.7,84.7
			l106.9-231.9c38.5-83.4,2-182.2-81.4-220.6L556.5-113.8L556.5-113.8"/>
		<path id="path40" class="st14" d="M556.5-113.8l-0.1,0.1v0.1L556.5-113.8"/>
		<path id="path42" class="st15" d="M556.5-113.8l63.8,153.6c31.4,75.7,2.8,161.3-64,203.9l0,10.6c0,24.9,5.8,48.5,16.1,69.4
			l87.1-80.2c67.6-62.2,71.9-167.4,9.7-235L556.5-113.8L556.5-113.8"/>
		<path id="path44" class="st15" d="M556.5-113.8l0.3,166.3c0,4.1-0.1,8.2-0.4,12.2l0,179c66.8-42.6,95.4-128.2,64-203.9
			L556.5-113.8"/>
		<path id="path46" class="st15" d="M556.5-113.8l-0.1,0.3l0,178.3c0.3-4,0.4-8.1,0.4-12.2L556.5-113.8"/>
		<path id="path48" class="st16" d="M574.9,51.8h-29.9v91.8h30.9c36.2,0,54.4-15.1,54.4-45.2C630.2,67.3,611.7,51.8,574.9,51.8z
			 M629.2-0.6c25.2,4.3,45.4,15.9,60.3,34.7c15,18.8,22.4,42,22.4,69.6c0,38.2-13.6,68.7-40.9,91.2c-11,9.3-23.7,15.7-38.1,19
			c-14.5,3.3-35.8,5-64.1,5H463.6v-332.7h81.3V-6.1l77.3-107.7h97.2L629.2-0.6z M298.1,51.8h-30v91.8H299
			c36.2,0,54.3-15.1,54.3-45.2C353.4,67.3,334.9,51.8,298.1,51.8z M412.7,34.1c15,18.8,22.4,42,22.4,69.6
			c0,38.2-13.6,68.7-40.9,91.2c-11,9.3-23.7,15.7-38.2,19c-14.4,3.3-35.8,5-64.1,5H186.8v-332.7h81.3V-6.1l77.3-107.7h97.2
			L352.4-0.6C377.7,3.7,397.8,15.3,412.7,34.1"/>
	</g>
</g>
</svg>
