<?xml version="1.0" encoding="utf-8"?>
<!-- Generator: Adobe Illustrator 27.8.0, SVG Export Plug-In . SVG Version: 6.00 Build 0)  -->
<svg version="1.1" id="Laag_1" xmlns="http://www.w3.org/2000/svg" xmlns:xlink="http://www.w3.org/1999/xlink" x="0px" y="0px"
	 viewBox="0 0 512 512" style="enable-background:new 0 0 512 512;" xml:space="preserve">
<style type="text/css">
	.st0{fill:#1B1B1E;}
	.st1{fill:#FFFFFF;}
</style>
<circle class="st0" cx="256" cy="256" r="255"/>
<g>
	<path class="st1" d="M132.7,296.9c0-18-12.9-27-38.6-27v-27.7c13,0,22.7-2.2,29.1-6.6c6.3-4.4,9.5-11.1,9.5-20.1v-45.1
		c0-15.1,5.2-26.2,15.7-33.3c10.5-7.1,26.2-10.7,47.2-10.7v26.4c-11,0.5-19,2.7-24,6.7c-5,4-7.5,10-7.5,17.9v43
		c0,19.2-11.1,30.7-33.2,34.5v1.7c22.1,3.5,33.2,14.9,33.2,34.4v43.3c0,7.9,2.5,13.9,7.4,18c4.9,4.1,12.9,6.2,24.1,6.4v26.5
		c-22.3-0.2-38.4-4-48.2-11.4c-9.8-7.4-14.7-19.3-14.7-35.9V296.9z"/>
	<path class="st1" d="M211.1,330.2c0-3.2,0.8-5.7,2.5-7.4c1.7-1.7,4.1-2.6,7.3-2.6c3.2,0,5.7,0.9,7.4,2.7c1.7,1.8,2.5,4.2,2.5,7.3
		c0,3.1-0.9,5.6-2.6,7.5c-1.7,1.8-4.1,2.8-7.3,2.8c-3.2,0-5.6-0.9-7.3-2.7C211.9,335.9,211.1,333.4,211.1,330.2z"/>
	<path class="st1" d="M248.4,330.2c0-3.2,0.8-5.7,2.5-7.4c1.7-1.7,4.1-2.6,7.3-2.6c3.2,0,5.7,0.9,7.4,2.7c1.7,1.8,2.5,4.2,2.5,7.3
		c0,3.1-0.9,5.6-2.6,7.5c-1.7,1.8-4.1,2.8-7.3,2.8c-3.2,0-5.6-0.9-7.3-2.7C249.2,335.9,248.4,333.4,248.4,330.2z"/>
	<path class="st1" d="M285.7,330.2c0-3.2,0.8-5.7,2.5-7.4c1.7-1.7,4.1-2.6,7.3-2.6c3.2,0,5.7,0.9,7.4,2.7c1.7,1.8,2.5,4.2,2.5,7.3
		c0,3.1-0.9,5.6-2.6,7.5c-1.7,1.8-4.1,2.8-7.3,2.8c-3.2,0-5.6-0.9-7.3-2.7C286.6,335.9,285.7,333.4,285.7,330.2z"/>
	<path class="st1" d="M381.3,341.4c0,15.1-4.8,26.1-14.4,33.2c-9.6,7.1-25,10.7-46.2,10.9v-26.5c9.2-0.1,16.3-2,21.5-5.6
		c5.1-3.6,7.7-9.9,7.7-18.8v-38c0-11.7,2.6-20.7,7.7-27.1c5.1-6.4,13.6-10.6,25.5-12.6v-1.7c-22.1-3.8-33.2-15.3-33.2-34.5v-43
		c0-7.9-2.2-13.9-6.6-17.9c-4.4-4-11.9-6.3-22.5-6.7v-26.4c21.5,0,37,3.7,46.5,11.1c9.4,7.4,14.1,19.5,14.1,36.3v41.6
		c0,9.7,3.1,16.5,9.2,20.6c6.1,4.1,15.2,6.1,27.3,6.1v27.7c-11.9,0-20.9,2.1-27.2,6.2c-6.2,4.1-9.3,11-9.3,20.8V341.4z"/>
</g>
</svg>
