<?xml version="1.0" encoding="utf-8"?>
<!-- Generator: Adobe Illustrator 27.8.0, SVG Export Plug-In . SVG Version: 6.00 Build 0)  -->
<svg version="1.1"
	 id="svg3004" xmlns:cc="http://creativecommons.org/ns#" xmlns:rdf="http://www.w3.org/1999/02/22-rdf-syntax-ns#" xmlns:svg="http://www.w3.org/2000/svg" xmlns:dc="http://purl.org/dc/elements/1.1/"
	 xmlns="http://www.w3.org/2000/svg" xmlns:xlink="http://www.w3.org/1999/xlink" x="0px" y="0px" viewBox="0 0 496.1 283.5"
	 style="enable-background:new 0 0 496.1 283.5;" xml:space="preserve">
<style type="text/css">
	.st0{fill:#FF8800;}
	.st1{fill:#FFFFFF;}
</style>
<g id="g3012" transform="matrix(1.25,0,0,-1.25,0,142.175)">
	<g id="g3014" transform="scale(0.1,0.1)">
		<g>
			<path id="path3016" class="st0" d="M1984.3,949.6c-87.7,0-158.8,71.1-158.8,158.8h555.7c87.7,0,158.8-71.1,158.8-158.8V393.9
				c-87.7,0-158.8,71.1-158.8,158.8v317.6c0,43.8-35.6,79.4-79.4,79.4L1984.3,949.6"/>
			<path id="path3018" class="st0" d="M2222.4,711.4c0,43.8-35.5,79.4-79.4,79.4h-635.1c-43.8,0-79.4-35.6-79.4-79.4V76.3
				c0-43.8,35.5-79.4,79.4-79.4H2143c43.8,0,79.4,35.5,79.4,79.4V711.4"/>
		</g>
		<g>
			<path id="path3020" class="st1" d="M524.3-997.7c-44-83.3-158.3-89.3-246.4-89.3c-67.9,0-135.7,4.8-175,8.3
				C54.1-1073.9,41-1062,41-1037v40.5c0,42.9,7.2,57.1,45.2,57.1c70.2,0,105.9-9.5,209.5-9.5c79.7,0,95.2,5.9,95.2,77.4
				c0,80.9-1.2,86.9-41.7,103.5c-51.2,21.4-100,41.7-150,63.1c-123.8,53.6-148.8,77.4-148.8,219c0,90.5,16.7,160.7,117.8,194
				c44,14.3,95.2,19,165.4,19c54.8,0,83.3-2.4,134.5-6c48.8-3.6,63.1-15.5,63.1-41.7v-39.3c0-42.8-8.3-57.1-46.4-57.1
				c-41.7,0-45.2,7.1-214.2,7.1c-66.7,0-64.3-28.6-64.3-86.9c0-42.9,1.2-52.4,41.7-70.2c32.1-14.3,65.5-27.4,97.6-41.7
				c165.4-70.2,201.2-86.9,201.2-222.6C546.9-876.3,545.7-956.1,524.3-997.7"/>
			<path id="path3022" class="st1" d="M1176-418.1c-67.9,0-123.8,1.2-175,2.4v-608.2c0-35.7-16.7-52.4-51.2-52.4h-51.2
				c-39.3,0-57.1,10.7-57.1,52.4v608.2c-51.2-1.2-108.3-2.4-176.1-2.4c-48.8,0-50,30.9-50,55.9v32.2c0,40.5,22.6,48.8,50,48.8H1176
				c27.4,0,51.2-8.3,51.2-48.8v-32.2C1227.2-387.1,1224.8-418.1,1176-418.1"/>
			<path id="path3024" class="st1" d="M1664.7-426.4c-19,9.5-70.2,9.5-91.6,9.5c-38.1,0-69-1.2-102.4-2.4v-232.1h134.5
				c42.8,0,64.3,7.1,77.4,23.8c10.7,14.3,14.3,33.3,14.3,77.4C1696.8-501.4,1692-440.7,1664.7-426.4z M1853.9-1076.3h-71.4
				c-29.7,0-50,3.6-72.6,32.1L1507.6-787h-36.9v-236.9c0-35.7-15.5-52.4-50-52.4h-51.2c-39.3,0-58.3,10.7-58.3,52.4V-330
				c0,46.4,32.1,48.8,58.3,48.8h220.2c125,0,157.1-8.3,203.5-55.9c44-44,61.9-120.2,61.9-222.6c0-97.6-28.6-158.3-78.5-192.8
				c-21.4-14.3-46.4-23.8-79.8-28.6l182.1-221.4C1902.7-1031,1907.5-1076.3,1853.9-1076.3"/>
			<path id="path3026" class="st1" d="M2313.1-482.3l-95.2-280.9c27.4,0,59.5,1.2,94,1.2c36.9,0,61.9-1.2,96.4-1.2L2313.1-482.3z
				 M2627.3-1076.3h-65.5c-36.9,0-47.6,17.9-55.9,41.7l-52.4,148.8c-51.2-1.2-89.3-1.2-141.6-1.2c-50,0-94,0-136.9,1.2l-47.6-140.5
				c-10.7-32.1-20.2-50-60.7-50H2012c-40.5,0-46.4,10.7-46.4,28.6c0,7.1,3.6,21.4,9.5,36.9L2219-330c13.1,36.9,26.2,53.6,70.2,53.6
				h48.8c44,0,57.1-16.7,70.2-52.4l257.1-693.9c2.4-6,4.8-11.9,4.8-17.9C2670.1-1070.3,2646.3-1076.3,2627.3-1076.3"/>
			<path id="path3028" class="st1" d="M3165.2-418.1c-67.8,0-123.8,1.2-175,2.4v-608.2c0-35.7-16.7-52.4-51.2-52.4h-51.2
				c-39.3,0-57.1,10.7-57.1,52.4v608.2c-51.2-1.2-108.3-2.4-176.1-2.4c-48.8,0-50,30.9-50,55.9v32.2c0,40.5,22.6,48.8,50,48.8h510.6
				c27.4,0,51.2-8.3,51.2-48.8v-32.2C3216.4-387.1,3214-418.1,3165.2-418.1"/>
			<path id="path3030" class="st1" d="M3735.8-474c-26.2,55.9-80.9,76.2-147.6,76.2c-66.7,0-121.4-20.2-147.6-76.2
				c-22.6-50-26.2-145.2-26.2-205.9s3.6-154.7,26.2-204.7c26.2-55.9,80.9-77.4,147.6-77.4c66.7,0,121.4,21.4,147.6,77.4
				c22.6,50,26.2,144,26.2,204.7S3758.4-524,3735.8-474z M3838.2-1001.3c-57.1-67.8-136.9-100-250-100s-195.2,32.1-251.1,100
				c-70.2,83.3-88.1,198.8-88.1,321.4s17.9,238,88.1,321.4c58.3,69,140.4,100,251.1,100c110.7,0,191.6-31,250-100
				c70.2-83.3,89.3-198.8,89.3-321.4C3927.4-802.5,3908.4-918,3838.2-1001.3"/>
		</g>
	</g>
</g>
</svg>
